<?xml version="1.0" encoding="utf-8"?>
<!-- Generator: Adobe Illustrator 24.2.3, SVG Export Plug-In . SVG Version: 6.00 Build 0)  -->
<svg version="1.1" id="Layer_1" xmlns="http://www.w3.org/2000/svg" xmlns:xlink="http://www.w3.org/1999/xlink" x="0px" y="0px"
	 viewBox="0 0 100 100" style="enable-background:new 0 0 100 100;" xml:space="preserve">
<style type="text/css">
	.st0{fill:#322942;}
	.st1{fill:#E4D2E8;}
	.st2{fill:#E04B44;}
</style>
<rect class="st0" width="100" height="100"/>
<g>
	<path class="st1" d="M39,74c-3.4,1.6-7.5,2.3-12,2.3c-3.9,0-7.3-0.6-10.5-1.9s-5.8-3.1-8.1-5.3c-2.3-2.3-4.1-5-5.3-8.1
		c-1.3-3.2-1.9-6.6-1.9-10.3v-0.1c0-3.6,0.6-6.9,2-10c1.3-3.1,3.1-5.8,5.3-8.1c2.3-2.3,5-4.2,8.1-5.6c3.1-1.4,6.6-2,10.3-2
		c2.2,0,4.2,0.1,6,0.4c1.8,0.3,3.4,0.7,5,1.3s3,1.3,4.4,2.1c1.4,0.8,2.7,1.8,4,3L39.6,40c-0.9-0.8-1.9-1.5-2.8-2.1
		c-0.9-0.6-1.9-1.2-2.9-1.6s-2.1-0.7-3.2-1c-1.1-0.2-2.5-0.3-3.9-0.3c-2,0-3.8,0.4-5.5,1.3c-1.7,0.8-3.2,1.9-4.5,3.4
		c-1.3,1.4-2.3,3.1-3,5c-0.7,1.9-1,3.9-1,6v0.1c0,2.3,0.3,4.4,1,6.3c0.7,1.9,1.8,3.6,3.1,5.1c1.4,1.4,2.9,2.5,4.7,3.3s3.8,1.2,6,1.2
		c4.1,0,7.4-1,10.2-3v-7.2H26.7V47h21.4v21.7C45.5,70.7,42.5,72.6,39,74z"/>
	<path class="st1" d="M77.5,75.5v-5.4c-1.4,1.8-2.9,3.3-4.7,4.4c-1.8,1.2-4.2,1.7-7,1.7c-2.2,0-4.4-0.4-6.4-1.3
		c-2.1-0.8-3.9-2.1-5.5-3.8c-1.6-1.7-2.9-3.7-3.9-6.2c-0.9-2.4-1.5-5.3-1.5-8.5v-0.1c0-3.2,0.5-6,1.5-8.5c0.9-2.4,2.2-4.5,3.8-6.2
		c1.6-1.7,3.3-3,5.4-3.8c2.1-0.8,4.2-1.3,6.5-1.3c2.8,0,5.2,0.5,7.1,1.7c1.9,1.2,3.4,2.4,4.7,3.9V23.6h10.6v51.9
		C88.2,75.5,77.5,75.5,77.5,75.5z M77.6,56.4c0-1.6-0.2-3.1-0.7-4.3c-0.5-1.3-1.1-2.4-2-3.4S73.1,47,72,46.6
		c-1.1-0.5-2.3-0.7-3.5-0.7c-1.3,0-2.4,0.2-3.5,0.7c-1.1,0.5-2.1,1.3-2.9,2.1c-0.8,1-1.5,2-2,3.4c-0.5,1.3-0.7,2.7-0.7,4.3v0.1
		c0,1.6,0.2,3.1,0.7,4.3s1.1,2.4,2,3.4c0.8,1,1.8,1.7,2.9,2.1c1.1,0.5,2.3,0.7,3.5,0.7c1.3,0,2.4-0.2,3.5-0.7
		c1.1-0.5,2.1-1.3,2.9-2.1c0.8-1,1.5-2,2-3.4c0.5-1.3,0.7-2.7,0.7-4.3V56.4z"/>
</g>
<g>
	<path class="st2" d="M88.6,75.5V64.1h10.7v11.4H88.6z"/>
</g>
</svg>
