<?xml version="1.0" encoding="utf-8"?>
<!-- Generator: Adobe Illustrator 24.2.3, SVG Export Plug-In . SVG Version: 6.00 Build 0)  -->
<svg version="1.1" id="Layer_1" xmlns="http://www.w3.org/2000/svg" xmlns:xlink="http://www.w3.org/1999/xlink" x="0px" y="0px"
	 viewBox="0 0 100 54.6" style="enable-background:new 0 0 100 54.6;" xml:space="preserve">
<style type="text/css">
	.st0{fill:#2B98D5;}
</style>
<g>
	<path d="M39.8,50.3c-3.3,1.5-7.2,2.2-11.5,2.2c-3.7,0-7-0.6-10.1-1.8s-5.6-2.9-7.8-5c-2.2-2.2-3.9-4.7-5.1-7.7
		c-1.2-3-1.8-6.2-1.8-9.7v-0.1c0-3.4,0.6-6.5,1.9-9.5c1.2-2.9,3-5.5,5.1-7.7c2.2-2.2,4.8-4,7.8-5.3c3-1.3,6.3-1.9,9.9-1.9
		c2.1,0,4,0.1,5.8,0.4c1.7,0.3,3.3,0.7,4.8,1.2s2.9,1.2,4.2,2c1.3,0.8,2.6,1.7,3.8,2.8l-6.5,7.9c-0.9-0.8-1.8-1.4-2.7-2
		c-0.9-0.6-1.8-1.1-2.8-1.5c-1-0.4-2-0.7-3.1-0.9c-1.1-0.2-2.4-0.3-3.7-0.3c-1.9,0-3.6,0.4-5.3,1.2c-1.6,0.8-3.1,1.8-4.3,3.2
		c-1.2,1.3-2.2,2.9-2.9,4.7c-0.7,1.8-1,3.7-1,5.7v0.1c0,2.2,0.3,4.2,1,6c0.7,1.8,1.7,3.4,3,4.8c1.3,1.3,2.8,2.4,4.5,3.1
		c1.7,0.7,3.6,1.1,5.8,1.1c3.9,0,7.1-0.9,9.8-2.8v-6.8H28v-9h20.5v20.5C46,47.1,43.1,48.9,39.8,50.3z"/>
	<path d="M76.7,51.7v-5.1c-1.3,1.7-2.8,3.1-4.5,4.2s-4,1.6-6.7,1.6c-2.1,0-4.2-0.4-6.1-1.2c-2-0.8-3.7-2-5.3-3.6
		c-1.5-1.6-2.8-3.5-3.7-5.9c-0.9-2.3-1.4-5-1.4-8v-0.1c0-3,0.5-5.7,1.4-8c0.9-2.3,2.1-4.3,3.6-5.9c1.5-1.6,3.2-2.8,5.2-3.6
		c2-0.8,4-1.2,6.2-1.2c2.7,0,5,0.5,6.8,1.6c1.8,1.1,3.3,2.3,4.5,3.7V2.6h10.2v49.1H76.7z M76.8,33.6c0-1.5-0.2-2.9-0.7-4.1
		c-0.5-1.2-1.1-2.3-1.9-3.2c-0.8-0.9-1.7-1.6-2.8-2c-1.1-0.5-2.2-0.7-3.4-0.7c-1.2,0-2.3,0.2-3.4,0.7c-1.1,0.5-2,1.2-2.8,2
		c-0.8,0.9-1.4,1.9-1.9,3.2c-0.5,1.2-0.7,2.6-0.7,4.1v0.1c0,1.5,0.2,2.9,0.7,4.1c0.5,1.2,1.1,2.3,1.9,3.2c0.8,0.9,1.7,1.6,2.8,2
		c1.1,0.5,2.2,0.7,3.4,0.7c1.2,0,2.3-0.2,3.4-0.7c1.1-0.5,2-1.2,2.8-2c0.8-0.9,1.4-1.9,1.9-3.2c0.5-1.2,0.7-2.6,0.7-4.1V33.6z"/>
</g>
<g>
	<path class="st0" d="M87.3,51.7V40.9h10.8v10.8H87.3z"/>
</g>
<g>
</g>
<g>
</g>
<g>
</g>
<g>
</g>
<g>
</g>
<g>
</g>
</svg>
