<?xml version="1.0" encoding="utf-8"?>
<!-- Generator: Adobe Illustrator 24.2.3, SVG Export Plug-In . SVG Version: 6.00 Build 0)  -->
<svg version="1.1" id="bb554b9e-b999-4ef3-b2f2-4c0395b94ae2"
	 xmlns="http://www.w3.org/2000/svg" xmlns:xlink="http://www.w3.org/1999/xlink" x="0px" y="0px" viewBox="0 0 926.6 600.1"
	 style="enable-background:new 0 0 926.6 600.1;" xml:space="preserve">
<style type="text/css">
	.st0{fill:#F2F2F2;}
	.st1{fill:#FFFFFF;}
	.st2{fill:#3F3D56;}
	.st3{fill:#CCCCCC;}
	.st4{fill:#E44D3A;}
</style>
<path class="st0" d="M890.2,591.1H33.4c-12.2,0-22-9.9-22.1-22.1V40.7c0-8.9,7.2-16.2,16.2-16.2h868.3c9.1,0,16.4,7.4,16.4,16.4V569
	C912.3,581.2,902.4,591.1,890.2,591.1z"/>
<path class="st1" d="M862.5,563.2H64c-11.7,0-21.2-8.9-21.2-19.9v-460c0-8.1,7.1-14.7,15.7-14.7h809.3c8.8,0,16,6.7,16,15v459.8
	C883.7,554.3,874.2,563.2,862.5,563.2z"/>
<path class="st2" d="M912,43.4H11V32.2c0-12.2,9.9-22.1,22.1-22.1h856.7c12.2,0,22.1,9.9,22.1,22.1v11.2H912z"/>
<circle class="st1" cx="51.3" cy="26.8" r="5.7"/>
<circle class="st1" cx="73" cy="26.8" r="5.7"/>
<circle class="st1" cx="94.8" cy="26.8" r="5.7"/>
<path class="st3" d="M444.3,169.1H288.1c-4.8,0-8.8-3.9-8.8-8.8c0-4.8,3.9-8.8,8.8-8.8h156.2c4.8,0,8.8,3.9,8.8,8.8
	C453.1,165.2,449.2,169.1,444.3,169.1L444.3,169.1z"/>
<path class="st3" d="M638.4,169.1H482.2c-4.8,0-8.8-3.9-8.8-8.8c0-4.8,3.9-8.8,8.8-8.8h156.2c4.8,0,8.8,3.9,8.8,8.8
	C647.2,165.2,643.2,169.1,638.4,169.1L638.4,169.1z"/>
<path class="st3" d="M638.4,202.4H366.7c-4.8,0-8.8-3.9-8.8-8.8c0-4.8,3.9-8.8,8.8-8.8l0,0h271.7c4.8,0,8.8,3.9,8.8,8.8
	S643.2,202.4,638.4,202.4z"/>
<path class="st3" d="M444.3,135.4H288.1c-4.8,0-8.8-3.9-8.8-8.8c0-4.8,3.9-8.8,8.8-8.8h156.2c4.8,0,8.8,3.9,8.8,8.8
	C453.1,131.5,449.2,135.4,444.3,135.4L444.3,135.4z"/>
<path class="st3" d="M530.3,135.9h-44.4c-4.8,0-8.8-3.9-8.8-8.8c0-4.8,3.9-8.8,8.8-8.8h44.4c4.8,0,8.8,3.9,8.8,8.8
	C539,131.9,535.1,135.9,530.3,135.9L530.3,135.9z"/>
<path class="st3" d="M332.5,202.4h-44.4c-4.8,0-8.8-3.9-8.8-8.8c0-4.8,3.9-8.8,8.8-8.8h44.4c4.8,0,8.8,3.9,8.8,8.8
	S337.4,202.4,332.5,202.4L332.5,202.4z"/>
<path class="st3" d="M444.3,480.7H288.1c-4.8,0-8.8-3.9-8.8-8.8c0-4.8,3.9-8.8,8.8-8.8h156.2c4.8,0,8.8,3.9,8.8,8.8
	C453.1,476.7,449.2,480.7,444.3,480.7L444.3,480.7z"/>
<path class="st3" d="M638.4,480.7H482.2c-4.8,0-8.8-3.9-8.8-8.8c0-4.8,3.9-8.8,8.8-8.8l0,0h156.2c4.8,0,8.8,3.9,8.8,8.8
	C647.2,476.7,643.2,480.7,638.4,480.7z"/>
<path class="st3" d="M638.4,513.9H366.7c-4.8,0-8.8-3.9-8.8-8.8c0-4.8,3.9-8.8,8.8-8.8l0,0h271.7c4.8,0,8.8,3.9,8.8,8.8
	C647.2,510,643.3,513.9,638.4,513.9L638.4,513.9z"/>
<path class="st3" d="M444.3,446.9H288.1c-4.8,0-8.8-3.9-8.8-8.8s3.9-8.8,8.8-8.8l0,0h156.2c4.8,0,8.8,3.9,8.8,8.8
	S449.2,446.9,444.3,446.9z"/>
<path class="st3" d="M530.3,447.4h-44.4c-4.8,0-8.8-3.9-8.8-8.8c0-4.8,3.9-8.8,8.8-8.8h44.4c4.8,0,8.8,3.9,8.8,8.8
	C539,443.5,535.1,447.4,530.3,447.4z"/>
<path class="st3" d="M332.5,513.9h-44.4c-4.8,0-8.8-3.9-8.8-8.8c0-4.8,3.9-8.8,8.8-8.8l0,0h44.4c4.8,0,8.8,3.9,8.8,8.8
	C341.3,510,337.4,513.9,332.5,513.9L332.5,513.9z"/>
<path class="st4" d="M403.5,386.4c-3.3,0-6.5-1.3-8.9-3.6l-58.7-58c-4.8-4.7-4.9-12.5-0.1-17.3l0.1-0.1l58.5-57.7
	c5.1-5,13.2-5,18.2,0.1l0,0c5,5.1,5,13.2,0,18.3l-43.4,43.4c-2.8,2.8-2.8,7.4,0,10.2l43.2,43.2c4.9,4.9,4.9,12.9,0,17.8
	C410.1,385.1,406.9,386.4,403.5,386.4L403.5,386.4z"/>
<path class="st4" d="M497.1,386.4c-7,0-12.6-5.6-12.6-12.6c0-3.4,1.3-6.6,3.7-8.9l43.2-43.2c2.8-2.8,2.8-7.4,0-10.2L487.9,268
	c-5.1-5-5.1-13.2,0-18.3l0,0l0,0c5-5,13.2-5,18.2-0.1l58.5,57.7c4.8,4.7,4.9,12.5,0.1,17.3l-0.1,0.1l-58.7,58
	C503.6,385.1,500.4,386.4,497.1,386.4z"/>
</svg>
